<svg xmlns="http://www.w3.org/2000/svg" viewBox="0 0 50 50"><path style="text-indent:0;text-align:start;line-height:normal;text-transform:none;block-progression:tb;-inkscape-font-specification:Sans" d="M21.813 2c-.947 0-1.783.666-1.97 1.594l-.468 2.344c-3.096.913-5.884 2.482-8.156 4.656l-2.188-.75c-.889-.301-1.866.1-2.344.906L3.5 16.25a2.005 2.005 0 0 0 .406 2.5l1.75 1.563C5.286 21.82 5 23.37 5 25c0 1.63.288 3.18.656 4.688l-1.75 1.562a2.009 2.009 0 0 0-.406 2.5l3.156 5.5a2.016 2.016 0 0 0 2.375.906l2.188-.75c2.273 2.174 5.06 3.743 8.156 4.657l.469 2.343A2.01 2.01 0 0 0 21.812 48h6.375c.947 0 1.783-.666 1.97-1.594l.468-2.343c3.096-.914 5.884-2.483 8.156-4.657l2.188.75c.889.301 1.866-.1 2.343-.906l3.188-5.5a2.009 2.009 0 0 0-.406-2.5l-1.75-1.563C44.712 28.18 45 26.63 45 25c0-1.63-.288-3.18-.656-4.688l1.75-1.562c.71-.625.878-1.68.406-2.5l-3.156-5.5a2.016 2.016 0 0 0-2.375-.906l-2.188.75c-2.273-2.174-5.06-3.743-8.156-4.656l-.469-2.344A2.01 2.01 0 0 0 28.188 2h-6.375zm0 2h6.375l.562 2.813.125.625.594.156a17.921 17.921 0 0 1 8.375 4.812l.437.469.625-.219 2.688-.906 3.187 5.5-2.156 1.906-.469.407.157.593c.43 1.549.687 3.171.687 4.844 0 1.673-.256 3.295-.688 4.844l-.156.593.469.407 2.156 1.906-3.187 5.5-2.719-.906-.594-.219-.437.469a17.912 17.912 0 0 1-8.375 4.812l-.594.157-.125.624L28.187 46h-6.375l-.562-2.813-.125-.624-.594-.157a17.921 17.921 0 0 1-8.375-4.812l-.437-.469-.625.219-2.688.906-3.187-5.5 2.156-1.906.469-.407-.157-.593A18.037 18.037 0 0 1 7 25c0-1.673.256-3.296.688-4.844l.156-.593-.469-.407-2.156-1.906 3.187-5.5 2.719.906.594.219.437-.469a17.912 17.912 0 0 1 8.375-4.812l.594-.157.125-.625L21.813 4zm13.093 13.969a1 1 0 0 0-.125.031H34a1 1 0 0 0-.094 0A1.001 1.001 0 0 0 34 20v10a1 1 0 0 0-.094 0A1.001 1.001 0 0 0 34 32h2a1 1 0 1 0 0-2V20a1 1 0 1 0 0-2h-.813a1 1 0 0 0-.28-.031zM16.375 18a1 1 0 0 0-.844.719l-3.5 11.375a1 1 0 0 0-.031.312V31a1 1 0 1 0 2 0v-.406L14.5 29h4l.5 1.594V31a1 1 0 1 0 2 0v-.594a1 1 0 0 0-.031-.312l-3.5-11.375A1 1 0 0 0 16.375 18zm7.438 0A1 1 0 0 0 23 19v6.813a1 1 0 0 0 0 .406V31a1 1 0 1 0 2 0v-4h3c1.645 0 3-1.355 3-3v-3c0-1.645-1.355-3-3-3h-4a1 1 0 0 0-.094 0 1 1 0 0 0-.093 0zM25 20h3c.565 0 1 .435 1 1v3c0 .565-.435 1-1 1h-3v-5zm-8.5 2.438L17.906 27h-2.812l1.406-4.563z"/></svg>